<svg xmlns="http://www.w3.org/2000/svg" viewBox="0 0 88 96">
  <g>
    <g id="Storm-Trooper-2">
      <path fill="none"
            stroke-linecap="round"
            stroke-width="2px"
            stroke="#000"
            stroke-linejoin="round"
            class="cls-1"
            d="M16.56,49.5c-4.31,4.08-1.76,8-1.76,8L25.51,75.65a2,2,0,0,0,2.46.86c2-.78,3.79-2.82,8-5.16A15.5,15.5,0,0,1,44,69h0a16.5,16.5,0,0,1,8.29,2.35c4.22,2.34,6,4.38,8,5.16a2,2,0,0,0,2.46-.86L73.47,57.5s2.6-3.39-2-8"/>
      <path fill="none"
            stroke-linecap="round"
            stroke-width="2px"
            stroke="#000"
            stroke-linejoin="round"
            class="cls-1"
            d="M66.49,83.41a2,2,0,0,1,0,2.82,2,2,0,0,1-2.83,0,2,2,0,0,1,0-2.82A2,2,0,0,1,66.49,83.41Z"/>
      <line fill="none"
            stroke-linecap="round"
            stroke-width="2px"
            stroke="#000"
            class="cls-1" x1="10.67" y1="62.37"
            x2="16.56" y2="72.27"/>
      <line fill="none"
            stroke-linecap="round"
            stroke-width="2px"
            stroke="#000"
            class="cls-1" x1="77.74" y1="62.37"
            x2="71.84" y2="72.27"/>
      <path fill="none"
            stroke-linecap="round"
            stroke-width="2px"
            stroke="#000"
            stroke-miterlimit="10"
            class="cls-2"
            d="M54,90.31A16.26,16.26,0,0,1,44,94a16.15,16.15,0,0,1-10.09-3.76"/>
      <path fill="none"
            stroke-linecap="round"
            stroke-width="2px"
            stroke="#000"
            stroke-miterlimit="10"
            class="cls-2"
            d="M79.11,31.93A30.09,30.09,0,0,0,49,2H39A30.1,30.1,0,0,0,8.91,31.93v11C-3,56.76,4.11,68,4.11,68s7,13.94,11.66,21.8S30.11,92.22,34,90.2A22,22,0,0,1,44,88h0a21.88,21.88,0,0,1,10,2.21c3.88,2,13.52,7.57,18.16-.29S83.75,68.08,83.75,68.08s7.4-11.32-4.64-25.17v-11"/>
      <line fill="none"
            stroke-linecap="round"
            stroke-width="2px"
            stroke="#000"
            stroke-miterlimit="10"
            class="cls-2"
            x1="9" y1="40" x2="79" y2="40"/>
      <line fill="none"
            stroke-linecap="round"
            stroke-width="2px"
            stroke="#000"
            stroke-miterlimit="10"
            class="cls-2"
            x1="9" y1="34" x2="79" y2="34"/>
      <path fill="none"
            stroke-linecap="round"
            stroke-width="2px"
            stroke="#000"
            stroke-linejoin="round"
            class="cls-1"
            d="M10.88,39.92C13.13,44,16,53,24,53c8.59,0,14.06-7.1,20-7.1S55.41,53,64,53c8,0,10.9-9,13.15-13.08"/>
    </g>
  </g>
</svg>
