<svg xmlns="http://www.w3.org/2000/svg" viewBox="0 0 96.08 96">
  <g>
    <g id="Falcon">
      <line class="cls-1"
            fill="none"
            stroke="#000"
            stroke-linecap="round"
            stroke-width="2px"
            stroke-linejoin="round"
            x1="33.22"
            y1="45.84"
            x2="15.81"
            y2="28.43"/>
      <line class="cls-1"
            fill="none"
            stroke="#000"
            stroke-linecap="round"
            stroke-width="2px"
            stroke-linejoin="round"
            x1="40.93"
            y1="39.41"
            x2="23.04"
            y2="21.52"/>
      <circle class="cls-1"
              fill="none"
              stroke="#000"
              stroke-linecap="round"
              stroke-width="2px"
              stroke-linejoin="round"
              cx="22.62"
              cy="73.42"
              r="1"/>
      <circle class="cls-1"
              fill="none"
              stroke="#000"
              stroke-linecap="round"
              stroke-width="2px"
              stroke-linejoin="round"
              cx="29.69"
              cy="66.35"
              r="1"/>
      <circle class="cls-1"
              fill="none"
              stroke="#000"
              stroke-linecap="round"
              stroke-width="2px"
              stroke-linejoin="round"
              cx="15.64"
              cy="61.75"
              r="1"/>
      <circle class="cls-1"
              fill="none"
              stroke="#000"
              stroke-linecap="round"
              stroke-width="2px"
              stroke-linejoin="round"
              cx="24.64"
              cy="57.51"
              r="1"/>
      <circle class="cls-1"
              fill="none"
              stroke="#000"
              stroke-linecap="round"
              stroke-width="2px"
              stroke-linejoin="round"
              cx="34.28"
              cy="80.39"
              r="1"/>
      <circle class="cls-1"
              fill="none"
              stroke="#000"
              stroke-linecap="round"
              stroke-width="2px"
              stroke-linejoin="round"
              cx="38.52"
              cy="71.39"
              r="1"/>
      <polyline class="cls-1"
                fill="none"
                stroke="#000"
                stroke-linecap="round"
                stroke-width="2px"
                stroke-linejoin="round"
                points="49.88 40.5 84.13 6.24 79.89 2 32.74 16.49"/>
      <line class="cls-1"
            fill="none"
            stroke="#000"
            stroke-linecap="round"
            stroke-width="2px"
            stroke-linejoin="round"
            x1="74.23"
            y1="16.14"
            x2="79.89"
            y2="21.8"/>
      <path class="cls-1"
            fill="none"
            stroke="#000"
            stroke-linecap="round"
            stroke-width="2px"
            stroke-linejoin="round"
            d="M73.38,28.31a37.44,37.44,0,0,1,8.05,24.42"/>
      <polyline class="cls-1"
                fill="none"
                stroke="#000"
                stroke-linecap="round"
                stroke-width="2px"
                stroke-linejoin="round"
                points="55.17 46.47 89.79 11.9 94.03 16.14 82.97 51.25"/>
      <path class="cls-1"
            fill="none"
            stroke="#000"
            stroke-linecap="round"
            stroke-width="2px"
            stroke-linejoin="round"
            d="M59.05,57.53l25.79,6,7.78-7.78a5,5,0,0,0,0-7.07h0a5,5,0,0,0-7.07,0L81.4,52.76,55.17,46.47"/>
      <line class="cls-1"
            fill="none"
            stroke="#000"
            stroke-linecap="round"
            stroke-width="2px"
            stroke-linejoin="round"
            x1="74.6"
            y1="73.08"
            x2="55.62"
            y2="54.2"/>
      <line class="cls-1"
            fill="none"
            stroke="#000"
            stroke-linecap="round"
            stroke-width="2px"
            stroke-linejoin="round"
            x1="67.72"
            y1="80.34"
            x2="49.34"
            y2="61.78"/>
      <circle class="cls-2"
              fill="none"
              stroke="#000"
              stroke-linecap="round"
              stroke-width="2px"
              stroke-miterlimit="10"
              cx="44.06"
              cy="51"
              r="12"/>
      <line class="cls-1"
            fill="none"
            stroke="#000"
            stroke-linecap="round"
            stroke-width="2px"
            stroke-linejoin="round"
            x1="8.01"
            y1="46"
            x2="33.22"
            y2="45.84"/>
      <line class="cls-1"
            fill="none"
            stroke="#000"
            stroke-linecap="round"
            stroke-width="2px"
            stroke-linejoin="round"
            x1="50.02"
            y1="88.09"
            x2="49.31"
            y2="61.78"/>
      <path class="cls-1"
            fill="none"
            stroke="#000"
            stroke-linecap="round"
            stroke-width="2px"
            stroke-linejoin="round"
            d="M80.1,62.42A37,37,0,0,1,50.22,88.09l-6,5.91h0A43.35,43.35,0,0,1,14.45,81.55,42.38,42.38,0,0,1,2,51.57H2L8,46A37.47,37.47,0,0,1,18.58,25.33a37,37,0,0,1,49.23-2.76"/>
    </g>
  </g>
</svg>
