<svg xmlns="http://www.w3.org/2000/svg" viewBox="0 0 96 96">
  <g id="Слой_2" data-name="Слой 2">
    <g id="BB8">
      <path class="cls-1"
            fill="none"
            stroke-width="2px"
            stroke="#000"
            stroke-linecap="round"
            stroke-linejoin="round"
            d="M11.67,42.05a26.7,26.7,0,0,1,46.24-26.7"/>
      <polyline class="cls-1"
                fill="none"
                stroke-width="2px"
                stroke="#000"
                stroke-linecap="round"
                stroke-linejoin="round"
                points="57.91 15.35 55.95 22.64 18.96 44 11.67 42.05"/>
      <path class="cls-2"
            fill="none"
            stroke-width="2px"
            stroke="#000"
            stroke-linecap="round"
            stroke-miterlimit="10"
            d="M36.93,16A8,8,0,1,1,26,13.07,8,8,0,0,1,36.93,16Z"/>
      <path class="cls-1"
            fill="none"
            stroke-width="2px"
            stroke="#000"
            stroke-linecap="round"
            stroke-linejoin="round"
            d="M47.87,16.5a1,1,0,1,1-1.37-.37A1,1,0,0,1,47.87,16.5Z"/>
      <circle class="cls-1"
              fill="none"
              stroke-width="2px"
              stroke="#000"
              stroke-linecap="round"
              stroke-linejoin="round"
              cx="61"
              cy="51"
              r="1"/>
      <circle class="cls-1"
              fill="none"
              stroke-width="2px"
              stroke="#000"
              stroke-linecap="round"
              stroke-linejoin="round"
              cx="34"
              cy="74"
              r="1"/>
      <path class="cls-1"
            fill="none"
            stroke-width="2px"
            stroke="#000"
            stroke-linecap="round"
            stroke-linejoin="round"
            d="M53.67,24A35,35,0,1,1,17,59a39.31,39.31,0,0,1,3.17-15.69"/>
      <path class="cls-1"
            fill="none"
            stroke-width="2px"
            stroke="#000"
            stroke-linecap="round"
            stroke-linejoin="round"
            d="M86.77,55A71.8,71.8,0,0,1,57.51,24.43"/>
      <path class="cls-1"
            fill="none"
            stroke-width="2px"
            stroke="#000"
            stroke-linecap="round"
            d="M49.89,93.94a12.5,12.5,0,0,1-6.1-6.52c-3.06-7.82,3.07-17.49,13.68-21.59s21.69-1.08,24.74,6.75a10.88,10.88,0,0,1,.71,2.83"/>
      <path class="cls-1"
            fill="none"
            stroke-width="2px"
            stroke="#000"
            stroke-linecap="round"
            stroke-linejoin="round"
            d="M17.27,63.28A23,23,0,0,0,45,29"/>
      <line class="cls-1"
            fill="none"
            stroke-width="2px"
            stroke="#000"
            stroke-linecap="round"
            stroke-linejoin="round"
            x1="40.83"
            y1="59.58"
            x2="50.1"
            y2="70.09"/>
      <line class="cls-1"
            fill="none"
            stroke-width="2px"
            stroke="#000"
            stroke-linecap="round"
            stroke-linejoin="round"
            x1="79.73"
            y1="50.53"
            x2="76.12"
            y2="66.07"/>
      <line class="cls-1"
            fill="none"
            stroke-width="2px"
            stroke="#000"
            stroke-linecap="round"
            stroke-linejoin="round"
            x1="47.4"
            y1="33.56"
            x2="61.17"
            y2="30.88"/>
      <line class="cls-1"
            fill="none"
            stroke-width="2px"
            stroke="#000"
            stroke-linecap="round"
            stroke-linejoin="round"
            x1="7"
            y1="94"
            x2="2"
            y2="94"/>
      <line class="cls-1"
            fill="none"
            stroke-width="2px"
            stroke="#000"
            stroke-linecap="round"
            stroke-linejoin="round"
            x1="79"
            y1="94"
            x2="15"
            y2="94"/>
      <line class="cls-1"
            fill="none"
            stroke-width="2px"
            stroke="#000"
            stroke-linecap="round"
            stroke-linejoin="round"
            x1="94"
            y1="94"
            x2="87"
            y2="94"/>
      <path class="cls-1"
            fill="none"
            stroke-width="2px"
            stroke="#000"
            stroke-linecap="round"
            stroke-linejoin="round"
            d="M33.43,35.65a8.67,8.67,0,1,1-13.72,7.92"/>
      <path class="cls-1"
            fill="none"
            stroke-width="2px"
            stroke="#000"
            stroke-linecap="round"
            d="M71.93,80.78c.56,3.65-2.54,7.6-6.92,8.83s-8.39-.74-8.94-4.39,2.54-7.6,6.92-8.83S71.38,77.13,71.93,80.78Z"/>
    </g>
  </g>
</svg>
